<svg width="118" height="52" viewBox="0 0 118 52" fill="none" xmlns="http://www.w3.org/2000/svg">
<g id="header">
<g id="logo">
<g id="Group">
<g id="Group_2">
<g id="Group_3">
<path id="Vector" d="M19.1788 10.8891C19.1788 10.8891 21.4964 10.2619 22.6553 10.8891L21.9232 25.1606C21.9232 25.1606 21.4967 25.6312 20.9173 25.3958C20.3374 25.1606 19.1788 10.8891 19.1788 10.8891Z" fill="#DFBD07"/>
<path id="Vector_2" d="M15.3745 11.6284C15.3745 11.6284 15.6772 11.6806 16.1606 13.5105C16.6439 15.34 17.2255 17.0651 17.2255 17.0651C17.2255 17.0651 18.7959 21.7698 18.9064 22.6585C19.0169 23.5472 19.3479 24.4358 19.7894 24.6972C20.2309 24.9586 19.5688 23.6516 19.4583 22.6585C19.3479 21.6654 15.6629 11.7456 16.3189 11.0336C16.9749 10.3217 15.3745 11.6284 15.3745 11.6284Z" fill="#D7DBDB"/>
<path id="Vector_3" d="M18.7406 25.4617C18.7406 25.4617 18.6662 25.3397 18.5347 25.1218C18.2755 24.6924 17.7943 23.8905 17.2252 22.9192C16.3676 21.4555 15.7606 21.3511 15.6505 20.2532C15.54 19.1554 12.5604 14.4506 12.0084 12.9347L12.6154 12.6211C12.6154 12.6211 16.4537 20.5243 17.2252 21.6125C17.7164 22.3048 18.7406 25.4617 18.7406 25.4617Z" fill="#FC9500"/>
<path id="Vector_4" d="M23.6449 10.2871C23.6449 10.2871 23.6588 10.9348 23.528 11.7429C23.3972 12.551 23.3314 14.1526 23.38 14.737C23.4286 15.3214 23.2574 17.561 23.2574 17.561C23.2574 17.561 22.8424 20.1979 22.9693 20.7761C23.0962 21.3542 23.2059 21.7239 23.2059 21.7239C23.2059 21.7239 23.2045 19.7916 23.3339 19.4455C23.4637 19.0994 23.5184 18.1288 23.5184 18.1288C23.5184 18.1288 23.6081 13.6689 23.864 12.9348C24.12 12.2014 23.6449 10.2871 23.6449 10.2871Z" fill="#82A40E" stroke="#82A40E" stroke-miterlimit="10"/>
<path id="Vector_5" d="M26.0533 11.3477C26.0533 11.3477 26.178 13.0686 25.3573 15.4826C24.5365 17.8965 24.6484 19.7754 24.6484 19.7754C24.6484 19.7754 24.135 22.2734 24.1103 22.6942C24.0857 23.115 23.3632 24.5946 23.5559 24.9667L24.1264 25.2084C24.1264 25.2084 24.3763 22.4663 24.7881 21.7049C25.2 20.9432 26.7114 11.3017 27.0439 11.2806C27.3763 11.2595 26.0533 11.3477 26.0533 11.3477Z" fill="#D7DBDB"/>
<path id="Vector_6" d="M29.6213 9.5957C29.6213 9.5957 27.3792 16 27.1493 16.8589C26.9195 17.7178 25.926 19.3191 25.926 19.3191L26.5838 19.1103L28.7859 13.2665L30.297 9.90829L29.6213 9.5957Z" fill="#D7DBDB"/>
<path id="Vector_7" d="M25.2654 24.1158C25.2654 24.1158 25.7858 23.1455 25.9839 22.6424C26.0393 22.5017 26.0697 22.3976 26.0561 22.3613C26.0071 22.2288 26.6245 21.2444 26.9716 20.6877C27.0585 20.5483 27.1286 20.436 27.1668 20.3703C27.3581 20.0425 27.732 18.6735 27.732 18.6735C27.732 18.6735 28.8405 15.8308 29.0919 14.9968C29.3432 14.1624 30.253 13.8104 30.253 13.8104L30.106 13.4128L30.9569 13.1182C30.9569 13.1182 28.2032 19.5259 27.9876 20.2354C27.7724 20.9453 25.2654 24.1158 25.2654 24.1158Z" fill="#DFBD07"/>
<path id="Vector_8" d="M33.7116 12.6784C33.7116 12.6784 32.9387 13.9661 32.5358 14.4782C32.1326 14.9903 31.6958 15.869 31.6958 15.869L30.9733 17.0384C30.9733 17.0384 29.5119 18.9405 29.4279 19.2462C29.3439 19.5519 29.0414 19.8468 29.0414 19.8468L29.2863 20.0484C29.2863 20.0484 29.5959 19.1639 29.8479 18.9623C30.1 18.7607 30.2176 18.3105 30.5368 18.047C30.856 17.7832 30.9736 17.3334 30.9736 17.3334C30.9736 17.3334 31.7969 16.0187 31.8809 15.8693C31.9649 15.7199 32.6874 14.649 32.6874 14.649C32.6874 14.649 33.9808 13.175 33.9808 12.8492C33.9808 12.5235 33.7116 12.6784 33.7116 12.6784Z" fill="#FC9500" stroke="#FC9500" stroke-miterlimit="10"/>
<path id="Vector_9" d="M35.6256 12.6836C35.6256 12.6836 34.8052 14.5629 33.4682 15.8534C32.1312 17.1439 29.7611 20.6781 29.7611 20.6781C29.7611 20.6781 28.5871 23.1466 28.156 23.5391C27.7249 23.9319 26.8262 25.3064 26.5702 25.3064C26.3142 25.3064 27.2387 26.12 27.7856 26.3161C28.3326 26.5125 28.9403 24.7058 30.0342 23.8558C31.1281 23.0059 31.6447 22.8099 31.8574 22.5011C32.0701 22.1923 33.0728 21.0986 33.0728 21.0986C33.0728 21.0986 35.3822 18.63 36.4457 18.0412C37.5092 17.4519 38.4208 15.5726 38.9981 15.4046C39.5755 15.2362 37.9346 14.3665 37.9346 14.3665C37.9346 14.3665 37.9954 14.4505 37.4788 14.8994C36.9623 15.3482 36.0507 16.4142 35.686 16.8067C35.3214 17.1995 34.0756 18.3776 33.8021 18.7421C33.5286 19.1069 31.0674 21.9118 30.3381 22.2203C29.6088 22.5287 29.089 23.7068 28.817 23.9876C28.5449 24.2684 29.9734 23.174 30.1861 23.0059C30.3989 22.8379 28.1807 25.5865 27.7856 25.6989C27.3906 25.8109 28.3326 24.7884 28.3022 24.6404C28.2718 24.4928 27.2691 25.6709 27.0564 25.5585C26.8437 25.4464 27.0564 25.1097 27.3602 24.8572C27.6641 24.6048 28.1199 24.5488 28.3022 24.156C28.4845 23.7632 28.8492 23.2303 29.0011 22.8939C29.153 22.5574 30.3685 20.9585 30.49 20.8461C30.6116 20.7341 34.3494 16.2739 34.5317 15.713C34.714 15.1521 36.3549 13.1044 36.3549 13.1044L35.6256 12.6836Z" fill="#82A40E"/>
<path id="Vector_10" d="M40.1639 18.0127C40.1639 18.0127 36.9358 20.8879 36.6873 20.9923C36.4389 21.0967 35.0043 22.4038 34.5078 22.7174C34.0112 23.031 34.7562 22.9266 34.9768 22.8481C35.1973 22.7696 35.8873 22.2994 36.0528 22.0639C36.2183 21.8288 36.4668 21.3844 36.4668 21.3844C36.4668 21.3844 36.7152 21.28 36.9358 21.2537C37.1564 21.2274 38.2049 20.3913 38.4808 20.1821C38.7568 19.9729 39.7224 19.1628 39.9433 19.0583C40.1639 18.9539 40.7158 18.8039 40.7988 18.7873C40.8813 18.7707 40.1639 18.0127 40.1639 18.0127Z" fill="#D7DBDB"/>
<path id="Vector_11" d="M34.7487 23.5245C34.7487 23.5245 30.0178 25.9554 29.1298 27.4675C29.1298 27.4675 30.1633 27.7244 32.7568 25.8935C35.35 24.0629 41.7408 21.4509 41.7408 21.4509L41.8248 20.123C41.8248 20.123 37.9768 22.206 37.4563 22.399C36.9358 22.5916 35.4776 23.5536 35.1455 23.7783C34.8138 24.0034 34.7487 23.5245 34.7487 23.5245Z" fill="#D7DBDB"/>
<path id="Vector_12" d="M29.6667 31.3248C29.6667 31.3248 29.5634 31.4386 29.5116 31.5689C29.4597 31.6993 29.4597 31.8456 29.6667 31.9109C30.0807 32.0416 33.2537 32.0267 33.2537 32.0267C33.2537 32.0267 38.1373 31.598 39.4067 31.6761C40.6758 31.7543 43.4845 32.0617 43.7662 32.0267C44.0476 31.9918 43.1868 39.5171 41.9452 39.857C40.7037 40.1969 29.0325 34.7339 28.9496 34.6032C28.8667 34.4725 29.3496 32.7702 29.198 31.728C29.0504 30.7145 33.3642 31.3248 33.3642 31.3248L36.3188 31.2449H38.9098V30.7871L33.086 31.0485L29.6667 31.3248Z" fill="#82A40E"/>
<path id="Vector_13" d="M28.8116 35.3291L40.3173 42.4702C40.3173 42.4702 37.5192 46.9398 36.3799 46.7828C35.2406 46.6258 27.2391 37.3903 27.5426 37.1116C28.4252 36.3018 28.8116 35.3291 28.8116 35.3291Z" fill="#FC9500"/>
<path id="Vector_14" d="M8.89041 14.7646L9.51136 14.3203C9.51136 14.3203 17.4833 25.5583 17.8844 25.866C18.2855 26.1738 17.657 26.3307 17.657 26.3307L15.5954 23.6319L12.3673 19.3127L8.89041 14.7646Z" fill="#DFBD07"/>
<path id="Vector_15" d="M16.754 27.0377L17.4161 26.7234C17.4161 26.7234 16.6014 26.3427 16.1602 25.749C15.7191 25.1553 14.5605 23.8223 14.5605 23.8223C14.5605 23.8223 12.0635 21.6266 12.0084 21.4305C11.9534 21.2345 10.6704 20.0975 10.6704 20.0975C10.6704 20.0975 10.1738 19.6342 9.84279 19.0425C9.51176 18.4509 8.02177 17.2746 8.02177 17.2746C8.02177 17.2746 7.06906 16.4896 7.11125 16.0982C7.15343 15.7068 6.44919 16.6864 6.44919 16.6864C6.44919 16.6864 7.7322 17.7804 7.93918 18.037C8.14617 18.2936 8.51866 19.1172 9.18072 19.3133C9.84278 19.5094 11.5398 21.7441 11.5398 21.7441L16.754 27.0377Z" fill="#82A40E"/>
<path id="Vector_16" d="M4.55453 19.09C5.00568 19.2252 6.19681 19.7311 8.44682 21.6132C8.52833 21.6813 8.65559 21.6688 8.71779 21.5848L8.78607 21.4921C8.84363 21.4143 8.82504 21.3079 8.74282 21.2532C8.04608 20.7906 5.11793 18.8227 5.04142 18.3711C4.97779 17.9952 4.6296 18.5302 4.448 18.8428C4.39223 18.9392 4.44407 19.0568 4.55453 19.09Z" fill="#DFBD07"/>
<path id="Vector_17" d="M8.8218 21.6716C8.67952 21.914 10.8083 23.4945 10.8083 23.1616C10.8083 23.1616 9.09742 21.201 8.8218 21.6716Z" fill="#DFBD07"/>
<path id="Vector_18" d="M11.0428 23.3506C11.0428 23.3506 14.3746 26.9969 15.8231 27.2714C17.2713 27.546 11.0428 23.3506 11.0428 23.3506Z" fill="#DFBD07"/>
<path id="Vector_19" d="M3.06884 20.6787C3.06884 20.6787 12.7206 26.4498 13.4545 27.0373C14.1884 27.6248 15.209 28.4087 15.7059 28.1998C16.2025 27.9906 16.4784 27.4156 16.4784 27.4156L14.9334 30.4478C14.9334 30.4478 13.4434 29.5328 10.3258 29.2455C7.20779 28.9578 4.89022 27.8603 4.64213 27.8077C4.39403 27.7552 3.01414 27.7033 2.73816 27.7292C2.46218 27.7552 2.26915 27.2586 0.503174 26.8143C0.503174 26.8143 1.79977 21.5484 3.06884 20.6787Z" fill="#D7DBDB"/>
<path id="Vector_20" d="M0.0612979 31.7809C0.0612979 31.7809 4.88984 31.4673 8.31097 31.7809C11.7324 32.0946 14.657 31.7111 14.657 31.7111V31.3252L14.795 32.3556C14.795 32.3556 14.4915 32.1727 13.8294 32.1464C13.1674 32.1202 9.96683 32.1986 9.52534 32.1464C9.08385 32.0942 2.95871 32.3034 2.1583 32.1464C1.35826 31.9894 0.199287 32.1202 0.0612979 32.1464C-0.076691 32.1727 0.0612979 31.7809 0.0612979 31.7809Z" fill="#FC9500"/>
<path id="Vector_21" d="M0.25469 34.3676C0.25469 34.3676 4.83478 33.7404 6.44882 33.7663C8.06286 33.7922 10.7669 33.2175 10.8083 33.2175C10.8498 33.2175 14.5744 32.721 14.7954 32.6688C15.0159 32.6166 14.7954 33.3223 14.7954 33.3223C14.7954 33.3223 12.2844 33.4267 10.8083 33.8189C9.33229 34.211 7.94668 34.8119 7.39794 34.786C6.8492 34.7597 3.84169 35.2041 3.7037 35.2303C3.56571 35.2566 0.503144 35.7791 0.503144 35.7791C0.503144 35.7791 0.0612909 35.1256 0.25469 34.3676Z" fill="#FC9500"/>
<path id="Vector_22" d="M1.77225 39.4384C1.77225 39.4384 3.78631 38.0792 4.6693 38.027C5.55229 37.9748 8.89084 36.537 8.89084 36.537C8.89084 36.537 13.9124 34.0512 14.5194 34.2223C15.1264 34.3935 14.8934 34.7334 14.8934 34.7334C14.8934 34.7334 11.429 36.0404 10.684 36.4585C9.93898 36.8766 6.98688 37.9485 6.82136 38.0007C6.65585 38.0529 4.11735 39.2815 3.15178 39.4384C2.18622 39.5954 1.77225 39.7784 1.77225 39.7784V39.4384Z" fill="#DFBD07"/>
<path id="Vector_23" d="M15.3195 35.3352L14.9373 33.8975C14.9373 33.8975 15.5404 36.2761 16.6461 36.6451C16.8491 36.7128 16.7751 37.0306 16.6357 37.1862C16.3948 37.4552 16.0248 37.9047 15.7059 38.4455C15.1818 39.3342 12.6433 40.9549 11.3739 42.4708C10.339 43.707 7.94671 45.586 7.09876 46.2378C6.92288 46.373 6.67156 46.3654 6.50497 46.2198C5.69277 45.5095 3.44348 43.4943 3.37413 42.9041C3.28976 42.1831 6.6283 40.7979 7.26284 40.4058C7.89737 40.0137 10.5739 38.6285 11.0979 38.1319C11.622 37.6354 13.6232 36.4957 14.271 36.3283" fill="#82A40E"/>
<path id="Vector_24" d="M16.478 39.2305C16.478 39.2305 15.6504 40.2761 15.3745 40.6942C15.0985 41.1122 14.05 42.3149 13.9399 42.6285C13.8294 42.9421 12.8363 44.458 12.8363 44.458C12.8363 44.458 12.4638 46.0161 11.9326 46.2042C11.4014 46.3923 10.1105 47.856 9.81164 48.2741C9.51279 48.6921 10.0576 48.8491 10.0576 48.8491C10.0576 48.8491 11.9326 47.3723 11.9326 46.7882C11.9326 46.2042 13.2546 44.5102 13.542 44.1966C13.8294 43.883 15.264 42.6285 15.3745 42.1579C15.4849 41.6872 16.5098 40.2235 16.7422 39.7792C16.9749 39.3349 16.478 39.2305 16.478 39.2305Z" fill="#82A40E"/>
<path id="Vector_25" d="M18.7405 38.4463C18.7405 38.4463 18.1335 38.6541 17.4161 41.0594C16.6986 43.4646 13.2485 49.0061 13.2628 49.4242C13.2775 49.8423 12.8753 50.4699 12.8753 50.4699H13.4541C13.4541 50.4699 14.3893 47.8039 14.9369 47.4377C15.4846 47.0715 17.085 43.308 17.085 43.151C17.085 42.994 19.2925 38.9691 18.7405 38.4463Z" fill="#D7DBDB"/>
<path id="Vector_26" d="M20.1755 38.9688H20.8919C20.8919 38.9688 19.734 44.1441 19.5685 44.9805C19.403 45.817 18.8292 48.2216 18.8292 48.2216L18.0181 51.9698L16.7422 51.7174C16.7422 51.7174 17.8004 47.9601 17.8841 47.6987C17.9677 47.4373 18.3541 45.3464 18.4092 44.7713C18.4642 44.1963 18.8439 42.9418 19.1781 42.6282C19.5131 42.3142 20.1755 38.9688 20.1755 38.9688Z" fill="#FC9500"/>
<path id="Vector_27" d="M21.7206 39.2305H22.2725C22.2725 39.2305 22.2725 46.4967 22.2725 47.438C22.2725 48.3792 22.2725 51.7246 22.2725 51.7246L21.7206 39.2305Z" fill="#82A40E"/>
<path id="Vector_28" d="M22.8698 38.9688H23.7403C23.7403 38.9688 26.7024 51.1061 26.9076 51.4104C27.1125 51.7147 25.3529 52.1113 24.8886 51.9698C24.4242 51.8284 24.4242 48.1171 24.3141 47.8557C24.2036 47.5943 23.6635 44.9283 23.7403 44.7713C23.8175 44.6143 22.9156 39.5438 22.8698 38.9688Z" fill="#DFBD07"/>
<path id="Vector_29" d="M24.7005 38.4463L28.7841 50.9927L29.2738 50.8357C29.2738 50.8357 27.9082 47.2679 27.8668 46.5034C27.8253 45.7389 26.6252 43.6216 26.6252 43.6216L24.7005 38.4463Z" fill="#82A40E"/>
<path id="Vector_30" d="M25.7766 38.0342C25.7766 38.0342 28.4048 42.6411 28.7566 43.3468C29.1083 44.0525 30.1636 45.5619 30.2051 45.8364C30.2466 46.111 32.227 49.39 32.4194 49.5415C32.6117 49.6929 32.8744 49.3454 32.8744 49.3454L30.3499 45.3658L25.7766 38.0342Z" fill="#D7DBDB"/>
<path id="Vector_31" d="M26.3146 37.8574C26.3146 37.8574 28.5703 41.1313 28.6321 41.1901C28.6943 41.2489 34.0123 48.6981 34.0123 48.6981L34.571 48.3454C34.571 48.3454 26.7282 37.8574 26.5212 37.8574C26.3142 37.8574 26.3146 37.8574 26.3146 37.8574Z" fill="#D7DBDB"/>
<path id="Vector_32" d="M26.9241 37.7007C26.9241 37.7007 34.364 47.8162 34.9435 48.0514C35.523 48.2865 35.1505 47.8162 35.1505 47.8162C35.1505 47.8162 30.2669 41.543 29.9566 41.2097C29.646 40.8764 27.327 37.5437 26.9241 37.7007Z" fill="#DFBD07"/>
<path id="Vector_33" d="M28.4698 27.4508C28.4698 27.4508 29.3893 30.1189 29.4701 30.6096C29.5505 31.1002 32.3174 30.0283 36.608 30.3032C40.8985 30.5781 41.0315 29.9903 41.5527 30.0504C42.0739 30.1106 43.8406 29.6234 43.8406 29.6234C43.8406 29.6234 43.723 24.3118 42.6369 23.335C42.6369 23.335 39.7109 24.5711 37.9128 25.1801C37.3283 25.3778 35.1012 26.5058 33.4964 26.7112C32.7514 26.8066 31.0201 27.8972 30.7134 28.0317C28.8284 28.8582 28.4698 27.4508 28.4698 27.4508Z" fill="#DFBD07"/>
</g>
<g id="Group_4">
<path id="Vector_34" d="M21.9965 37.2996C25.1789 37.2996 27.7588 34.8556 27.7588 31.8407C27.7588 28.8259 25.1789 26.3818 21.9965 26.3818C18.8141 26.3818 16.2342 28.8259 16.2342 31.8407C16.2342 34.8556 18.8141 37.2996 21.9965 37.2996Z" fill="#82A40E"/>
</g>
</g>
</g>
<g id="Group_5">
<g id="Group_6">
<g id="Group_7">
<path id="Vector_35" d="M25.3044 4.94359C25.911 4.83571 26.5191 4.84435 27.1218 4.97298C26.5148 5.0819 25.9071 5.07119 25.3044 4.94359Z" fill="#D7DBDB"/>
</g>
<g id="Group_8">
<path id="Vector_36" d="M25.4212 4.37793C26.0282 4.46507 26.5974 4.6632 27.1214 4.97268C26.5141 4.88623 25.946 4.68637 25.4212 4.37793Z" fill="#D7DBDB"/>
</g>
<g id="Group_9">
<path id="Vector_37" d="M25.6651 3.88965C26.2242 4.15659 26.7118 4.51793 27.1219 4.97229C26.5624 4.70639 26.0755 4.34332 25.6651 3.88965Z" fill="#D7DBDB"/>
</g>
<g id="Group_10">
<path id="Vector_38" d="M26.2024 3.46484C26.6131 3.90675 26.9213 4.41056 27.1214 4.97245C26.71 4.53123 26.4036 4.0264 26.2024 3.46484Z" fill="#D7DBDB"/>
</g>
<g id="Group_11">
<path id="Vector_39" d="M26.8462 3.25391C27.0582 3.8082 27.1515 4.38323 27.1218 4.97348C26.9088 4.41954 26.8176 3.84416 26.8462 3.25391Z" fill="#D7DBDB"/>
</g>
<g id="Group_12">
<path id="Vector_40" d="M27.5358 3.16504C27.5169 3.79229 27.3792 4.39706 27.1219 4.97313C27.1397 4.34588 27.2791 3.74146 27.5358 3.16504Z" fill="#D7DBDB"/>
</g>
<g id="Group_13">
<path id="Vector_41" d="M28.3076 3.3125C28.0131 3.93214 27.6177 4.48747 27.1219 4.9726C27.4154 4.35261 27.8129 3.79833 28.3076 3.3125Z" fill="#D7DBDB"/>
</g>
<g id="Group_14">
<path id="Vector_42" d="M28.7027 3.70898C28.254 4.2204 27.7264 4.64329 27.1219 4.97248C27.5698 4.46003 28.0989 4.03886 28.7027 3.70898Z" fill="#D7DBDB"/>
</g>
<g id="Group_15">
<path id="Vector_43" d="M28.728 4.2998C28.2419 4.63176 27.7049 4.85755 27.1219 4.9727C27.6073 4.63971 28.1453 4.41564 28.728 4.2998Z" fill="#D7DBDB"/>
</g>
<g id="Group_16">
<path id="Vector_44" d="M27.2809 6.45216C27.0121 5.93833 27.0293 5.35223 27.1397 4.80762C27.1097 5.08009 27.1169 5.35534 27.158 5.62263C27.2009 5.88888 27.2867 6.14856 27.4343 6.36295L27.2809 6.45216Z" fill="#D7DBDB"/>
</g>
</g>
<g id="Group_17">
<g id="Group_18">
<path id="Vector_45" d="M30.3981 0.505859C30.9086 0.841269 31.3351 1.26036 31.6707 1.76105C31.1599 1.42668 30.7349 1.00586 30.3981 0.505859Z" fill="#D7DBDB"/>
</g>
<g id="Group_19">
<path id="Vector_46" d="M30.8918 0.182617C31.2607 0.657031 31.5224 1.18435 31.6707 1.76077C31.3007 1.2867 31.0412 0.758346 30.8918 0.182617Z" fill="#D7DBDB"/>
</g>
<g id="Group_20">
<path id="Vector_47" d="M31.4194 0C31.6235 0.56985 31.7086 1.15837 31.6707 1.76038C31.4655 1.19088 31.3826 0.602008 31.4194 0Z" fill="#D7DBDB"/>
</g>
<g id="Group_21">
<path id="Vector_48" d="M32.1108 0.0625C32.0825 0.656209 31.9363 1.22433 31.6711 1.7603C31.6983 1.16659 31.8462 0.598809 32.1108 0.0625Z" fill="#D7DBDB"/>
</g>
<g id="Group_22">
<path id="Vector_49" d="M32.7228 0.348633C32.4715 0.887017 32.1204 1.36005 31.6707 1.76046C31.9213 1.22139 32.2741 0.749741 32.7228 0.348633Z" fill="#D7DBDB"/>
</g>
<g id="Group_23">
<path id="Vector_50" d="M33.278 0.753906C32.8089 1.18752 32.2724 1.525 31.6707 1.76014C32.139 1.32549 32.677 0.990076 33.278 0.753906Z" fill="#D7DBDB"/>
</g>
<g id="Group_24">
<path id="Vector_51" d="M33.7202 1.38281C33.0606 1.62382 32.376 1.75072 31.6707 1.75971C32.3303 1.51767 33.0152 1.39284 33.7202 1.38281Z" fill="#D7DBDB"/>
</g>
<g id="Group_25">
<path id="Vector_52" d="M33.7137 1.9342C33.0231 1.99332 32.3403 1.93627 31.6711 1.76027C32.3617 1.69975 33.0442 1.75923 33.7137 1.9342Z" fill="#D7DBDB"/>
</g>
<g id="Group_26">
<path id="Vector_53" d="M33.303 2.37243C32.716 2.27872 32.1694 2.07471 31.6707 1.76074C32.2581 1.85376 32.8039 2.05915 33.303 2.37243Z" fill="#D7DBDB"/>
</g>
<g id="Group_27">
<path id="Vector_54" d="M30.7105 2.92222C30.8921 2.37381 31.3297 1.96786 31.8037 1.65527C31.3861 1.99518 30.9947 2.44159 30.8842 2.96268L30.7105 2.92222Z" fill="#D7DBDB"/>
</g>
</g>
<g id="Group_28">
<g id="Group_29">
<path id="Vector_55" d="M41.4708 9.03711C41.3468 9.68822 41.1087 10.3006 40.7559 10.8684C40.8792 10.2169 41.1191 9.60523 41.4708 9.03711Z" fill="#82A40E"/>
</g>
<g id="Group_30">
<path id="Vector_56" d="M42.0321 9.35156C41.7018 9.93075 41.276 10.438 40.7559 10.8678C41.0855 10.2883 41.513 9.78206 42.0321 9.35156Z" fill="#82A40E"/>
</g>
<g id="Group_31">
<path id="Vector_57" d="M42.4632 9.76855C41.9623 10.2326 41.3925 10.6012 40.7562 10.8685C41.2563 10.4034 41.8272 10.0369 42.4632 9.76855Z" fill="#82A40E"/>
</g>
<g id="Group_32">
<path id="Vector_58" d="M42.7159 10.4609C42.0892 10.7116 41.4343 10.8489 40.7562 10.8686C41.3825 10.6169 42.0378 10.4817 42.7159 10.4609Z" fill="#82A40E"/>
</g>
<g id="Group_33">
<path id="Vector_59" d="M42.7006 11.1861C42.0332 11.1961 41.3829 11.091 40.7559 10.868C41.4237 10.8569 42.0736 10.9641 42.7006 11.1861Z" fill="#82A40E"/>
</g>
<g id="Group_34">
<path id="Vector_60" d="M42.5358 11.9159C41.8802 11.6676 41.2846 11.3184 40.7559 10.8682C41.4122 11.1154 42.0067 11.4667 42.5358 11.9159Z" fill="#82A40E"/>
</g>
<g id="Group_35">
<path id="Vector_61" d="M42.0875 12.6462C41.5455 12.123 41.1001 11.5296 40.7562 10.8682C41.2985 11.3903 41.7425 11.985 42.0875 12.6462Z" fill="#82A40E"/>
</g>
<g id="Group_36">
<path id="Vector_62" d="M41.514 12.909C41.1473 12.2693 40.8931 11.5877 40.7562 10.8682C41.1237 11.5075 41.3761 12.1897 41.514 12.909Z" fill="#82A40E"/>
</g>
<g id="Group_37">
<path id="Vector_63" d="M40.8721 12.7295C40.7119 12.1171 40.6722 11.4947 40.7559 10.8682C40.9171 11.4805 40.955 12.103 40.8721 12.7295Z" fill="#82A40E"/>
</g>
<g id="Group_38">
<path id="Vector_64" d="M38.7442 10.457C39.3445 10.8142 40.0773 11.0414 40.7826 10.8727C40.0823 11.1019 39.2998 10.9242 38.6559 10.6071L38.7442 10.457Z" fill="#82A40E"/>
</g>
</g>
<g id="Group_39">
<g id="Group_40">
<path id="Vector_65" d="M37.4023 4.15796C37.9804 4.51273 38.4787 4.95499 38.8913 5.48369C38.3125 5.12995 37.8156 4.68597 37.4023 4.15796Z" fill="#82A40E"/>
</g>
<g id="Group_41">
<path id="Vector_66" d="M37.9142 3.77148C38.3461 4.28428 38.6735 4.85586 38.8912 5.48311C38.4587 4.97101 38.133 4.39839 37.9142 3.77148Z" fill="#82A40E"/>
</g>
<g id="Group_42">
<path id="Vector_67" d="M38.4744 3.54004C38.7322 4.16279 38.8727 4.81183 38.8912 5.48265C38.6324 4.86024 38.4941 4.21086 38.4744 3.54004Z" fill="#82A40E"/>
</g>
<g id="Group_43">
<path id="Vector_68" d="M39.233 3.57324C39.239 4.22919 39.1261 4.8682 38.8912 5.48404C38.884 4.82774 38.9992 4.18908 39.233 3.57324Z" fill="#82A40E"/>
</g>
<g id="Group_44">
<path id="Vector_69" d="M39.9229 3.85742C39.6831 4.46012 39.3392 5.00404 38.8912 5.48329C39.13 4.8799 39.4761 4.33702 39.9229 3.85742Z" fill="#82A40E"/>
</g>
<g id="Group_45">
<path id="Vector_70" d="M40.561 4.27734C40.0777 4.77285 39.5204 5.17672 38.8912 5.48274C39.3738 4.9862 39.9326 4.58405 40.561 4.27734Z" fill="#82A40E"/>
</g>
<g id="Group_46">
<path id="Vector_71" d="M41.094 4.9541C40.3898 5.24456 39.6545 5.42264 38.8912 5.48385C39.5951 5.19235 40.3312 5.01634 41.094 4.9541Z" fill="#82A40E"/>
</g>
<g id="Group_47">
<path id="Vector_72" d="M41.1312 5.56632C40.3809 5.65622 39.6323 5.62994 38.8912 5.48368C39.6416 5.39274 40.3902 5.42143 41.1312 5.56632Z" fill="#82A40E"/>
</g>
<g id="Group_48">
<path id="Vector_73" d="M40.7194 6.07567C40.0724 5.99026 39.4607 5.7935 38.8912 5.48438C39.5386 5.5684 40.1496 5.76723 40.7194 6.07567Z" fill="#82A40E"/>
</g>
<g id="Group_49">
<path id="Vector_74" d="M37.7448 7.13516C38.3114 6.73025 38.8033 6.15763 38.9052 5.46191C38.8634 6.17596 38.4004 6.81151 37.856 7.27071L37.7448 7.13516Z" fill="#82A40E"/>
</g>
</g>
<g id="Group_50">
<g id="Group_51">
<path id="Vector_75" d="M44.1016 2.69531C44.3697 3.30458 44.5213 3.94221 44.5513 4.60369C44.2817 3.99477 44.1327 3.3568 44.1016 2.69531Z" fill="#82A40E"/>
</g>
<g id="Group_52">
<path id="Vector_76" d="M44.7493 2.65723C44.8044 3.31663 44.7393 3.96706 44.5513 4.60295C44.4948 3.94354 44.562 3.29347 44.7493 2.65723Z" fill="#82A40E"/>
</g>
<g id="Group_53">
<path id="Vector_77" d="M45.346 2.77441C45.1933 3.42898 44.9288 4.04067 44.5509 4.60326C44.7025 3.94835 44.9692 3.33769 45.346 2.77441Z" fill="#82A40E"/>
</g>
<g id="Group_54">
<path id="Vector_78" d="M45.9522 3.21582C45.573 3.75974 45.1054 4.22412 44.5513 4.60276C44.9295 4.05815 45.3989 3.59549 45.9522 3.21582Z" fill="#82A40E"/>
</g>
<g id="Group_55">
<path id="Vector_79" d="M46.3537 3.8291C45.8028 4.19425 45.2008 4.45393 44.5509 4.60297C45.1014 4.23678 45.7045 3.97917 46.3537 3.8291Z" fill="#82A40E"/>
</g>
<g id="Group_56">
<path id="Vector_80" d="M46.6332 4.52467C45.9447 4.66817 45.2491 4.6948 44.5513 4.60213C45.2394 4.4576 45.9354 4.43304 46.6332 4.52467Z" fill="#82A40E"/>
</g>
<g id="Group_57">
<path id="Vector_81" d="M46.6761 5.37363C45.9257 5.22702 45.2154 4.97045 44.5509 4.60254C45.3016 4.74811 46.0112 5.00676 46.6761 5.37363Z" fill="#82A40E"/>
</g>
<g id="Group_58">
<path id="Vector_82" d="M46.3483 5.89888C45.6773 5.56174 45.0761 5.12951 44.5513 4.60254C45.2226 4.93899 45.8225 5.37294 46.3483 5.89888Z" fill="#82A40E"/>
</g>
<g id="Group_59">
<path id="Vector_83" d="M45.7105 6.09217C45.2276 5.6672 44.839 5.16962 44.5509 4.60254C45.0349 5.02681 45.4217 5.52543 45.7105 6.09217Z" fill="#82A40E"/>
</g>
<g id="Group_60">
<path id="Vector_84" d="M42.6391 5.33493C43.3433 5.3121 44.084 5.10982 44.5755 4.59253C44.1226 5.15754 43.369 5.4276 42.6512 5.50713L42.6391 5.33493Z" fill="#82A40E"/>
</g>
</g>
<g id="Group_61">
<g id="Group_62">
<path id="Vector_85" d="M45.1215 8.98047C45.5322 9.51021 45.8364 10.0946 46.0288 10.7301C45.6169 10.2007 45.3145 9.61567 45.1215 8.98047Z" fill="#D7DBDB"/>
</g>
<g id="Group_63">
<path id="Vector_86" d="M45.7413 8.79492C45.9576 9.42252 46.0545 10.0691 46.0288 10.7303C45.8114 10.103 45.7163 9.45571 45.7413 8.79492Z" fill="#D7DBDB"/>
</g>
<g id="Group_64">
<path id="Vector_87" d="M46.3498 8.77051C46.363 9.44133 46.2568 10.0966 46.0287 10.7301C46.0144 10.0592 46.1228 9.40467 46.3498 8.77051Z" fill="#D7DBDB"/>
</g>
<g id="Group_65">
<path id="Vector_88" d="M47.0472 9.05957C46.8131 9.67541 46.4735 10.2342 46.0284 10.7297C46.2618 10.1135 46.6036 9.55577 47.0472 9.05957Z" fill="#D7DBDB"/>
</g>
<g id="Group_66">
<path id="Vector_89" d="M47.5885 9.56348C47.1438 10.0452 46.6229 10.4362 46.0284 10.7308C46.4727 10.2485 46.995 9.85878 47.5885 9.56348Z" fill="#D7DBDB"/>
</g>
<g id="Group_67">
<path id="Vector_90" d="M48.0314 10.1748C47.3983 10.4729 46.7291 10.6596 46.0284 10.7305C46.6615 10.4314 47.3311 10.2467 48.0314 10.1748Z" fill="#D7DBDB"/>
</g>
<g id="Group_68">
<path id="Vector_91" d="M48.2827 10.9887C47.518 11.0194 46.7648 10.934 46.0287 10.73C46.7934 10.6982 47.5463 10.7857 48.2827 10.9887Z" fill="#D7DBDB"/>
</g>
<g id="Group_69">
<path id="Vector_92" d="M48.0936 11.5739C47.3586 11.401 46.6683 11.1202 46.0287 10.7295C46.7637 10.9013 47.4533 11.1845 48.0936 11.5739Z" fill="#D7DBDB"/>
</g>
<g id="Group_70">
<path id="Vector_93" d="M47.5219 11.9096C46.9478 11.6084 46.448 11.2149 46.0283 10.7305C46.6032 11.031 47.1019 11.4258 47.5219 11.9096Z" fill="#D7DBDB"/>
</g>
<g id="Group_71">
<path id="Vector_94" d="M44.3521 11.8826C45.0303 11.6979 45.7002 11.3307 46.0498 10.7148C45.7492 11.3684 45.0839 11.8044 44.4065 12.0471L44.3521 11.8826Z" fill="#D7DBDB"/>
</g>
</g>
<g id="Group_72">
<g id="Group_73">
<path id="Vector_95" d="M44.7476 14.708C44.5985 16.0078 44.3314 17.2858 43.9429 18.5382C44.0909 17.2381 44.3604 15.9608 44.7476 14.708Z" fill="#D7DBDB"/>
</g>
<g id="Group_74">
<path id="Vector_96" d="M45.1719 14.9072C45.0078 15.55 44.7326 16.1475 44.3454 16.6939C44.5084 16.0507 44.7858 15.4539 45.1719 14.9072Z" fill="#D7DBDB"/>
</g>
<g id="Group_75">
<path id="Vector_97" d="M45.7128 15.2539C45.3471 15.8127 44.8909 16.2947 44.3454 16.6937C44.71 16.1343 45.168 15.6536 45.7128 15.2539Z" fill="#D7DBDB"/>
</g>
<g id="Group_76">
<path id="Vector_98" d="M46.1174 15.6953C45.5887 16.1296 44.9971 16.4647 44.3454 16.695C44.8734 16.2593 45.4661 15.9263 46.1174 15.6953Z" fill="#D7DBDB"/>
</g>
<g id="Group_77">
<path id="Vector_99" d="M46.3269 16.4007C45.6856 16.6147 45.0235 16.714 44.3454 16.6946C44.9864 16.4792 45.6488 16.382 46.3269 16.4007Z" fill="#D7DBDB"/>
</g>
<g id="Group_78">
<path id="Vector_100" d="M46.2669 17.1241C45.5998 17.0958 44.9574 16.953 44.3454 16.6943C45.0125 16.7217 45.6549 16.8665 46.2669 17.1241Z" fill="#D7DBDB"/>
</g>
<g id="Group_79">
<path id="Vector_101" d="M46.0574 17.8427C45.4182 17.5571 44.8452 17.1739 44.3454 16.6943C44.9853 16.9789 45.5569 17.3634 46.0574 17.8427Z" fill="#D7DBDB"/>
</g>
<g id="Group_80">
<path id="Vector_102" d="M45.5648 18.546C45.0561 17.9927 44.6478 17.3745 44.3454 16.6943C44.8548 17.2469 45.2613 17.8662 45.5648 18.546Z" fill="#D7DBDB"/>
</g>
<g id="Group_81">
<path id="Vector_103" d="M44.976 18.7753C44.6493 18.1155 44.4373 17.4208 44.345 16.6943C44.6732 17.3537 44.8827 18.0491 44.976 18.7753Z" fill="#D7DBDB"/>
</g>
<g id="Group_82">
<path id="Vector_104" d="M44.3465 18.5591C44.2245 17.9385 44.2231 17.315 44.3454 16.6943C44.4683 17.315 44.4676 17.9385 44.3465 18.5591Z" fill="#D7DBDB"/>
</g>
<g id="Group_83">
<path id="Vector_105" d="M42.3628 16.168C42.9398 16.559 43.6576 16.8284 44.3719 16.7005C43.6587 16.8889 42.8887 16.6666 42.2656 16.3129L42.3628 16.168Z" fill="#D7DBDB"/>
</g>
</g>
<g id="Group_84">
<g id="Group_85">
<path id="Vector_106" d="M33.5278 6.53906C33.8974 6.62897 34.4765 6.66424 34.7954 6.85061C34.5723 6.84404 34.3607 6.79495 34.153 6.72821C34.1548 6.72268 33.5053 6.55531 33.5278 6.53906Z" fill="#FC9500"/>
</g>
<g id="Group_86">
<path id="Vector_107" d="M33.7332 6.14453C34.0382 6.35408 34.5569 6.58437 34.7785 6.86618C34.5766 6.78423 34.4007 6.66632 34.2355 6.53354C34.2394 6.5287 33.7061 6.15145 33.7332 6.14453Z" fill="#FC9500"/>
</g>
<g id="Group_87">
<path id="Vector_108" d="M33.9991 5.8534C34.2311 6.14316 34.6626 6.51419 34.7931 6.84959C34.6226 6.71232 34.4882 6.54807 34.368 6.37276C34.3731 6.36896 33.9709 5.85236 33.9991 5.8534Z" fill="#FC9500"/>
</g>
<g id="Group_88">
<path id="Vector_109" d="M34.4861 5.6447C34.5719 5.99948 34.8032 6.50743 34.7767 6.8629C34.6809 6.67064 34.6298 6.46836 34.5966 6.26193C34.603 6.26054 34.4611 5.6326 34.4861 5.6447Z" fill="#FC9500"/>
</g>
<g id="Group_89">
<path id="Vector_110" d="M34.9596 5.59029C34.9117 5.95613 34.9453 6.51698 34.7919 6.84582C34.7715 6.63075 34.7969 6.42121 34.8402 6.21374C34.847 6.21477 34.9403 5.57058 34.9596 5.59029Z" fill="#FC9500"/>
</g>
<g id="Group_90">
<path id="Vector_111" d="M35.4615 5.63747C35.267 5.99017 35.0715 6.56382 34.7926 6.84529C34.8613 6.62226 34.9703 6.41963 35.0954 6.2253C35.1011 6.22842 35.4507 5.61223 35.4615 5.63747Z" fill="#FC9500"/>
</g>
<g id="Group_91">
<path id="Vector_112" d="M35.972 5.86244C35.6284 6.1491 35.1895 6.65256 34.7937 6.84343C34.9582 6.6446 35.1526 6.47897 35.3593 6.32683C35.3635 6.33167 35.9713 5.83478 35.972 5.86244Z" fill="#FC9500"/>
</g>
<g id="Group_92">
<path id="Vector_113" d="M36.1668 6.2047C35.7668 6.39142 35.2195 6.76176 34.7944 6.84301C35.0018 6.69433 35.2295 6.58575 35.4651 6.49274C35.4679 6.49861 36.1736 6.17807 36.1668 6.2047Z" fill="#FC9500"/>
</g>
<g id="Group_93">
<path id="Vector_114" d="M36.0628 6.62651C35.6939 6.69048 35.1598 6.88724 34.7959 6.84297C34.9982 6.76068 35.2088 6.72195 35.4229 6.70051C35.424 6.70708 36.0767 6.603 36.0628 6.62651Z" fill="#FC9500"/>
</g>
<g id="Vector_115">
<path d="M34.6285 8.17489C35.0447 7.35815 34.7987 6.8291 34.7987 6.8291L34.6285 8.17489Z" fill="#FC9500"/>
<path d="M34.6285 8.17489C35.0447 7.35815 34.7987 6.8291 34.7987 6.8291" stroke="#FC9500" stroke-width="0.25" stroke-miterlimit="10"/>
</g>
</g>
<g id="Group_94">
<g id="Group_95">
<g id="Group_96">
<path id="Vector_116" d="M31.2943 7.07324C31.4562 7.46847 31.5609 7.87891 31.606 8.30181C31.4437 7.90692 31.34 7.49613 31.2943 7.07324Z" fill="#DFBD07"/>
</g>
<g id="Group_97">
<path id="Vector_117" d="M31.735 7.06543C31.7518 7.48279 31.7093 7.89565 31.6063 8.30125C31.5888 7.88389 31.6324 7.47103 31.735 7.06543Z" fill="#DFBD07"/>
</g>
<g id="Group_98">
<path id="Vector_118" d="M32.1416 7.15527C32.0179 7.56088 31.8395 7.94401 31.606 8.30154C31.7294 7.89594 31.9088 7.51316 32.1416 7.15527Z" fill="#DFBD07"/>
</g>
<g id="Group_99">
<path id="Vector_119" d="M32.5555 7.45312C32.2803 7.77851 31.9635 8.0624 31.6064 8.30202C31.8813 7.9763 32.1988 7.6931 32.5555 7.45312Z" fill="#DFBD07"/>
</g>
<g id="Group_100">
<path id="Vector_120" d="M32.8308 7.85352C32.4444 8.05684 32.0354 8.2069 31.6064 8.30096C31.9925 8.09729 32.4018 7.94826 32.8308 7.85352Z" fill="#DFBD07"/>
</g>
<g id="Group_101">
<path id="Vector_121" d="M33.0227 8.30522C32.5508 8.36192 32.0779 8.36158 31.606 8.30176C32.0782 8.24436 32.5512 8.24609 33.0227 8.30522Z" fill="#DFBD07"/>
</g>
<g id="Group_102">
<path id="Vector_122" d="M33.0549 8.84873C32.5505 8.72114 32.0669 8.53925 31.6064 8.30273C32.1108 8.42998 32.5941 8.61256 33.0549 8.84873Z" fill="#DFBD07"/>
</g>
<g id="Group_103">
<path id="Vector_123" d="M32.8333 9.17514C32.3893 8.93137 31.9793 8.64056 31.6064 8.30273C32.0508 8.54617 32.4601 8.83766 32.8333 9.17514Z" fill="#DFBD07"/>
</g>
<g id="Group_104">
<path id="Vector_124" d="M32.4 9.28234C32.0887 8.99188 31.8231 8.66511 31.6064 8.30273C31.9181 8.59285 32.183 8.92031 32.4 9.28234Z" fill="#DFBD07"/>
</g>
<g id="Group_105">
<path id="Vector_125" d="M30.3115 8.77417C31.2524 8.75135 31.6227 8.29492 31.6227 8.29492L30.3115 8.77417Z" fill="#DFBD07"/>
<path id="Vector_126" d="M30.3109 8.73095C30.7777 8.73026 31.2821 8.6248 31.6232 8.29492C31.2997 8.6497 30.7888 8.7887 30.3134 8.8174L30.3109 8.73095Z" fill="#DFBD07"/>
</g>
</g>
</g>
<g id="Group_106">
<g id="Group_107">
<path id="Vector_127" d="M36.8781 0.0810547C37.1202 0.449659 37.2478 0.855605 37.2556 1.29233C37.0129 0.92407 36.8871 0.517433 36.8781 0.0810547Z" fill="#FC9500"/>
</g>
<g id="Group_108">
<path id="Vector_128" d="M37.3397 0.0341797C37.4258 0.454997 37.3915 0.870629 37.2346 1.27208C37.147 0.85092 37.1835 0.435634 37.3397 0.0341797Z" fill="#FC9500"/>
</g>
<g id="Group_109">
<path id="Vector_129" d="M37.7286 0.120117C37.6846 0.552346 37.527 0.945501 37.2557 1.29163C37.2986 0.859401 37.4584 0.466592 37.7286 0.120117Z" fill="#FC9500"/>
</g>
<g id="Group_110">
<path id="Vector_130" d="M38.158 0.397461C37.9453 0.777131 37.6435 1.07831 37.2557 1.29304C37.4676 0.912676 37.7712 0.612884 38.158 0.397461Z" fill="#FC9500"/>
</g>
<g id="Group_111">
<path id="Vector_131" d="M38.45 0.803711C38.0911 1.06893 37.6836 1.22729 37.2342 1.27294C37.5928 1.00668 38.001 0.850392 38.45 0.803711Z" fill="#FC9500"/>
</g>
<g id="Group_112">
<path id="Vector_132" d="M38.6706 1.22373C38.2062 1.36377 37.7322 1.38763 37.2557 1.2915C37.72 1.15042 38.1941 1.12899 38.6706 1.22373Z" fill="#FC9500"/>
</g>
<g id="Group_113">
<path id="Vector_133" d="M38.7317 1.76399C38.2026 1.71869 37.7082 1.5617 37.2557 1.29199C37.7851 1.33625 38.2791 1.49531 38.7317 1.76399Z" fill="#FC9500"/>
</g>
<g id="Group_114">
<path id="Vector_134" d="M38.528 2.10147C38.0382 1.93065 37.6114 1.66025 37.2557 1.29199C37.7461 1.46212 38.1715 1.7339 38.528 2.10147Z" fill="#FC9500"/>
</g>
<g id="Group_115">
<path id="Vector_135" d="M38.1011 2.2301C37.7286 1.99566 37.4441 1.68169 37.2557 1.29199C37.6289 1.52574 37.912 1.84109 38.1011 2.2301Z" fill="#FC9500"/>
</g>
<g id="Group_116">
<path id="Vector_136" d="M35.9816 1.74452C36.4442 1.73484 36.94 1.62107 37.2721 1.28601C36.9779 1.66879 36.4724 1.84998 35.9955 1.91672L35.9816 1.74452Z" fill="#FC9500"/>
</g>
</g>
</g>
<g id="Group_117">
<g id="Group_118">
<g id="Group_119">
<path id="Vector_137" d="M53.6271 29.9971H54.4511V33.0915L56.8713 29.9971H57.6502V34.3553H56.8262V31.2671L54.406 34.3553H53.6271V29.9971Z" fill="#82A40E"/>
<path id="Vector_138" d="M58.82 31.0303H59.6243V32.3813H61.3556V31.0303H62.1607V34.355H61.3556V33.041H59.6243V34.355H58.82V31.0303Z" fill="#82A40E"/>
<path id="Vector_139" d="M62.9446 32.693C62.9446 31.6968 63.7167 30.9932 64.8046 30.9932C65.4741 30.9932 66.0082 31.2608 66.272 31.7649L65.6539 32.1135C65.448 31.7961 65.1388 31.6526 64.7978 31.6526C64.2051 31.6526 63.7546 32.0513 63.7546 32.6923C63.7546 33.3396 64.2051 33.7321 64.7978 33.7321C65.1384 33.7321 65.4477 33.589 65.6539 33.2715L66.272 33.6201C66.0082 34.118 65.4741 34.3984 64.8046 34.3984C63.7171 34.3991 62.9446 33.6892 62.9446 32.693Z" fill="#82A40E"/>
<path id="Vector_140" d="M69.67 31.6904H68.4663V34.3553H67.6613V31.6904H66.4512V31.0303H69.67V31.6904Z" fill="#82A40E"/>
<path id="Vector_141" d="M70.2544 31.0303H71.0587V33.2219L72.9577 31.0303H73.6916V34.355H72.8873V32.1634L70.9944 34.355H70.2544V31.0303Z" fill="#82A40E"/>
<path id="Vector_142" d="M77.4941 31.6904H76.2905V34.3553H75.4862V31.6904H74.2761V31.0303H77.4941V31.6904Z" fill="#82A40E"/>
<path id="Vector_143" d="M81.3489 31.0303L79.7395 34.623C79.4239 35.3764 78.987 35.6067 78.4136 35.6067C78.0729 35.6067 77.7119 35.4947 77.4935 35.3017L77.8152 34.7288C77.9696 34.8719 78.188 34.9591 78.4072 34.9591C78.6907 34.9591 78.8576 34.8284 79.0117 34.4985L79.0696 34.3678L77.57 31.0306H78.4072L79.4886 33.4898L80.5764 31.0306H81.3489V31.0303Z" fill="#82A40E"/>
<path id="Vector_144" d="M84.6557 31.6904H83.452V34.3553H82.6477V31.6904H81.4376V31.0303H84.6557V31.6904Z" fill="#82A40E"/>
<path id="Vector_145" d="M90.6657 32.6927C90.6657 33.7262 89.9257 34.3988 88.9215 34.3988C88.4836 34.3988 88.0975 34.2556 87.8205 33.9503V35.563H87.0161V31.0305H87.7822V31.4662C88.0525 31.1488 88.4518 30.9932 88.9219 30.9932C89.9257 30.9928 90.6657 31.6654 90.6657 32.6927ZM89.8481 32.6927C89.8481 32.0575 89.4109 31.6529 88.8314 31.6529C88.252 31.6529 87.808 32.0575 87.808 32.6927C87.808 33.3279 88.252 33.7325 88.8314 33.7325C89.4109 33.7325 89.8481 33.3279 89.8481 32.6927Z" fill="#82A40E"/>
<path id="Vector_146" d="M94.263 32.4064V34.3552H93.5034V33.9503C93.31 34.2366 92.9371 34.3988 92.422 34.3988C91.6373 34.3988 91.1415 33.9818 91.1415 33.4026C91.1415 32.8483 91.5275 32.4126 92.57 32.4126H93.458V32.3628C93.458 31.9085 93.1752 31.6405 92.6018 31.6405C92.2157 31.6405 91.8171 31.765 91.5594 31.9707L91.2437 31.404C91.6108 31.1301 92.1449 30.9932 92.6987 30.9932C93.6896 30.9928 94.263 31.4472 94.263 32.4064ZM93.458 33.3154V32.9296H92.6279C92.0813 32.9296 91.9333 33.1287 91.9333 33.3715C91.9333 33.6515 92.1778 33.832 92.5896 33.832C92.9818 33.832 93.3232 33.6578 93.458 33.3154Z" fill="#82A40E"/>
<path id="Vector_147" d="M97.9433 33.3768C97.9433 33.993 97.2548 34.4103 96.2957 34.4103C95.7676 34.4103 95.2407 34.2859 94.8285 34.0615L95.0595 33.4826C95.3948 33.6628 95.8324 33.7689 96.2571 33.7689C96.7911 33.7689 97.1193 33.6009 97.1193 33.3146C97.1193 33.0528 96.8748 32.9097 96.4433 32.9097H95.7744V32.3868H96.379C96.7847 32.3868 97.0228 32.2499 97.0228 32.0068C97.0228 31.7637 96.7329 31.6143 96.2506 31.6143C95.9028 31.6143 95.5428 31.6953 95.1628 31.8571L94.9569 31.2845C95.4266 31.0728 95.871 30.9795 96.3211 30.9795C97.203 30.9795 97.8468 31.3467 97.8468 31.8948C97.8468 32.2188 97.6212 32.4864 97.2673 32.623C97.6927 32.7419 97.9433 33.0096 97.9433 33.3768Z" fill="#82A40E"/>
<path id="Vector_148" d="M101.901 33.421C101.901 34.0061 101.45 34.355 100.524 34.355H98.7727V31.0303H100.452C101.29 31.0303 101.792 31.3415 101.792 31.8895C101.792 32.2319 101.592 32.4874 101.264 32.624C101.688 32.7488 101.901 33.0165 101.901 33.421ZM99.5388 32.4189H100.382C100.794 32.4189 101.006 32.2758 101.006 32.0016C101.006 31.7277 100.794 31.597 100.382 31.597H99.5388V32.4189ZM101.122 33.3716C101.122 33.0787 100.922 32.9355 100.485 32.9355H99.5388V33.7886H100.459C100.89 33.7886 101.122 33.6579 101.122 33.3716Z" fill="#82A40E"/>
<path id="Vector_149" d="M102.756 31.0303H103.56V33.2219L105.459 31.0303H106.193V34.355H105.388V32.1634L103.496 34.355H102.756V31.0303Z" fill="#82A40E"/>
<path id="Vector_150" d="M109.996 31.6904H108.792V34.3553H107.987V31.6904H106.777V31.0303H109.996V31.6904Z" fill="#82A40E"/>
<path id="Vector_151" d="M110.58 31.0303H111.384V33.2219L113.283 31.0303H114.017V34.355H113.213V32.1634L111.32 34.355H110.58V31.0303Z" fill="#82A40E"/>
<path id="Vector_152" d="M118 31.0303V34.355H117.279V33.3526H116.372L115.67 34.355H114.808L115.618 33.2467C115.13 33.0849 114.852 32.736 114.852 32.2256C114.852 31.4473 115.464 31.0303 116.423 31.0303H118ZM115.67 32.2509C115.67 32.6368 115.928 32.8111 116.423 32.8111H117.28V31.6842H116.45C115.954 31.6842 115.67 31.8522 115.67 32.2509Z" fill="#82A40E"/>
<path id="Vector_153" d="M56.4462 37.9457V41.2704H55.6419V39.9813C55.333 40.1244 54.9852 40.2119 54.6055 40.2119C53.7365 40.2119 53.2346 39.8381 53.2346 39.01V37.9453H54.0393V38.9605C54.0393 39.3962 54.316 39.5892 54.7793 39.5892C55.0624 39.5892 55.3652 39.5266 55.6419 39.4024V37.9453H56.4462V37.9457Z" fill="#82A40E"/>
<path id="Vector_154" d="M60.7321 39.857H58.0352C58.1321 40.3425 58.55 40.6541 59.1488 40.6541C59.5348 40.6541 59.8376 40.5355 60.0818 40.2927L60.5133 40.7723C60.2044 41.1271 59.7215 41.3138 59.1295 41.3138C57.9769 41.3138 57.2305 40.5981 57.2305 39.6077C57.2305 38.6181 57.9834 37.9082 59.0068 37.9082C60.0114 37.9082 60.7453 38.5866 60.7453 39.6267C60.7453 39.6886 60.7381 39.782 60.7321 39.857ZM58.0288 39.3401H59.9788C59.9145 38.8608 59.5348 38.5306 59.0068 38.5306C58.4856 38.5306 58.106 38.8543 58.0288 39.3401Z" fill="#82A40E"/>
<path id="Vector_155" d="M64.6959 37.9463V41.271H63.8915V38.6064H62.6039L62.5717 39.2661C62.5138 40.4491 62.3336 41.3332 61.5221 41.3332C61.3938 41.3332 61.2458 41.3087 61.0781 41.2651L61.1164 40.6112C61.1743 40.6237 61.2261 40.6299 61.2715 40.6299C61.7995 40.6299 61.8181 39.92 61.8575 39.2292L61.9154 37.9463H64.6959Z" fill="#82A40E"/>
<path id="Vector_156" d="M65.4798 39.6077C65.4798 38.6115 66.252 37.9082 67.3077 37.9082C68.3765 37.9082 69.1426 38.6115 69.1426 39.6077C69.1426 40.6039 68.3765 41.3138 67.3077 41.3138C66.252 41.3138 65.4798 40.6039 65.4798 39.6077ZM68.3315 39.6077C68.3315 38.9729 67.8936 38.568 67.308 38.568C66.7293 38.568 66.2913 38.9729 66.2913 39.6077C66.2913 40.2429 66.7293 40.6475 67.308 40.6475C67.8936 40.6475 68.3315 40.2429 68.3315 39.6077Z" fill="#82A40E"/>
<path id="Vector_157" d="M73.061 40.337C73.061 40.9221 72.6106 41.271 71.6833 41.271H69.9331V37.9463H71.6129C72.4494 37.9463 72.9513 38.2575 72.9513 38.8056C72.9513 39.1479 72.7515 39.4034 72.4233 39.54C72.8487 39.6648 73.061 39.9325 73.061 40.337ZM70.6992 39.335H71.5417C71.9536 39.335 72.1666 39.1918 72.1666 38.9179C72.1666 38.6437 71.9536 38.513 71.5417 38.513H70.6992V39.335ZM72.2817 40.2876C72.2817 39.9947 72.0826 39.8516 71.6451 39.8516H70.6992V40.7046H71.6193C72.0508 40.7046 72.2817 40.5739 72.2817 40.2876Z" fill="#82A40E"/>
<path id="Vector_158" d="M77.1213 39.857H74.4241C74.521 40.3425 74.9393 40.6541 75.5377 40.6541C75.9238 40.6541 76.2269 40.5355 76.4711 40.2927L76.9026 40.7723C76.5933 41.1271 76.1107 41.3138 75.5187 41.3138C74.3658 41.3138 73.6198 40.5981 73.6198 39.6077C73.6198 38.6181 74.373 37.9082 75.3961 37.9082C76.401 37.9082 77.1346 38.5866 77.1346 39.6267C77.1346 39.6886 77.1274 39.782 77.1213 39.857ZM74.4177 39.3401H76.3678C76.3034 38.8608 75.9238 38.5306 75.3958 38.5306C74.8749 38.5306 74.4953 38.8543 74.4177 39.3401Z" fill="#82A40E"/>
<path id="Vector_159" d="M80.9306 37.9457V41.2704H80.1256V39.9813C79.8171 40.1244 79.4692 40.2119 79.0896 40.2119C78.2209 40.2119 77.719 39.8381 77.719 39.01V37.9453H78.5233V38.9605C78.5233 39.3962 78.7997 39.5892 79.2633 39.5892C79.5468 39.5892 79.8493 39.5266 80.1256 39.4024V37.9453H80.9306V37.9457Z" fill="#82A40E"/>
<path id="Vector_160" d="M85.2162 39.857H82.519C82.6155 40.3425 83.0334 40.6541 83.6325 40.6541C84.0186 40.6541 84.321 40.5355 84.5652 40.2927L84.9967 40.7723C84.6882 41.1271 84.2048 41.3138 83.6129 41.3138C82.4607 41.3138 81.7143 40.5981 81.7143 39.6077C81.7143 38.6181 82.4668 37.9082 83.4906 37.9082C84.4948 37.9082 85.2283 38.5866 85.2283 39.6267C85.2287 39.6886 85.2226 39.782 85.2162 39.857ZM82.5129 39.3401H84.463C84.3986 38.8608 84.019 38.5306 83.491 38.5306C82.9694 38.5306 82.5894 38.8543 82.5129 39.3401Z" fill="#82A40E"/>
<path id="Vector_161" d="M85.8132 39.6077C85.8132 38.6115 86.5854 37.9082 87.6732 37.9082C88.3428 37.9082 88.8768 38.1758 89.1407 38.68L88.5226 39.0289C88.3167 38.7111 88.0082 38.568 87.6664 38.568C87.0744 38.568 86.624 38.9663 86.624 39.6077C86.624 40.2554 87.0744 40.6475 87.6664 40.6475C88.0078 40.6475 88.3163 40.5043 88.5226 40.1869L89.1407 40.5355C88.8768 41.0334 88.3428 41.3138 87.6732 41.3138C86.5854 41.3138 85.8132 40.6039 85.8132 39.6077Z" fill="#82A40E"/>
<path id="Vector_162" d="M91.2766 39.9383H90.6524V41.271H89.8481V37.9463H90.6524V39.2914H91.2963L92.3129 37.9463H93.1759L91.9269 39.5466L93.2599 41.271H92.3133L91.2766 39.9383Z" fill="#82A40E"/>
<path id="Vector_163" d="M93.4133 39.6077C93.4133 38.6115 94.1854 37.9082 95.2411 37.9082C96.3092 37.9082 97.0753 38.6115 97.0753 39.6077C97.0753 40.6039 96.3092 41.3138 95.2411 41.3138C94.1854 41.3138 93.4133 40.6039 93.4133 39.6077ZM96.2638 39.6077C96.2638 38.9729 95.8266 38.568 95.2411 38.568C94.6616 38.568 94.2237 38.9729 94.2237 39.6077C94.2237 40.2429 94.6616 40.6475 95.2411 40.6475C95.827 40.6475 96.2638 40.2429 96.2638 39.6077Z" fill="#82A40E"/>
<path id="Vector_164" d="M100.505 38.6064H98.6701V41.271H97.8658V37.9463H100.505V38.6064Z" fill="#82A40E"/>
<path id="Vector_165" d="M100.645 39.6077C100.645 38.6115 101.417 37.9082 102.473 37.9082C103.542 37.9082 104.308 38.6115 104.308 39.6077C104.308 40.6039 103.542 41.3138 102.473 41.3138C101.417 41.3138 100.645 40.6039 100.645 39.6077ZM103.497 39.6077C103.497 38.9729 103.059 38.568 102.473 38.568C101.895 38.568 101.457 38.9729 101.457 39.6077C101.457 40.2429 101.895 40.6475 102.473 40.6475C103.059 40.6475 103.497 40.2429 103.497 39.6077Z" fill="#82A40E"/>
<path id="Vector_166" d="M56.8262 44.8623V48.187H56.0283V45.5224H54.3356V48.187H53.5309V44.8623H56.8262Z" fill="#82A40E"/>
<path id="Vector_167" d="M57.617 46.5237C57.617 45.5275 58.3891 44.8242 59.4448 44.8242C60.5133 44.8242 61.2794 45.5275 61.2794 46.5237C61.2794 47.5199 60.5133 48.2298 59.4448 48.2298C58.3891 48.2298 57.617 47.5199 57.617 46.5237ZM60.4679 46.5237C60.4679 45.8889 60.0303 45.484 59.4448 45.484C58.8657 45.484 58.4277 45.8889 58.4277 46.5237C58.4277 47.1589 58.8657 47.5635 59.4448 47.5635C60.0303 47.5635 60.4679 47.1589 60.4679 46.5237Z" fill="#82A40E"/>
<path id="Vector_168" d="M64.6637 45.5224H63.46V48.187H62.6557V45.5224H61.4456V44.8623H64.6637V45.5224Z" fill="#82A40E"/>
<path id="Vector_169" d="M68.3061 46.773H65.6089C65.7054 47.2585 66.1233 47.5701 66.7225 47.5701C67.1086 47.5701 67.411 47.4515 67.6552 47.2087L68.0867 47.6883C67.7781 48.0431 67.2948 48.2298 66.7028 48.2298C65.5507 48.2298 64.8042 47.5141 64.8042 46.5237C64.8042 45.5341 65.5567 44.8242 66.5806 44.8242C67.5847 44.8242 68.3183 45.5026 68.3183 46.5428C68.319 46.6047 68.3126 46.698 68.3061 46.773ZM65.6029 46.2561H67.5529C67.4886 45.7768 67.1089 45.4466 66.5809 45.4466C66.0594 45.4466 65.6797 45.7703 65.6029 46.2561Z" fill="#82A40E"/>
<path id="Vector_170" d="M69.1992 44.8623H70.0035V46.2133H71.7351V44.8623H72.5402V48.187H71.7351V46.8734H70.0035V48.187H69.1992V44.8623Z" fill="#82A40E"/>
<path id="Vector_171" d="M77.392 47.5273V48.9529H76.6387V48.187H73.6205V44.8623H74.4248V47.5273H76.0664V44.8623H76.8707V47.5273H77.392Z" fill="#82A40E"/>
<path id="Vector_172" d="M78.1051 44.8623H78.9094V47.0539L80.8084 44.8623H81.5423V48.187H80.738V45.9954L78.8451 48.187H78.1051V44.8623Z" fill="#82A40E"/>
<path id="Vector_173" d="M85.4668 46.2374V48.1863H84.7079V47.7817C84.5145 48.068 84.1409 48.2298 83.6265 48.2298C82.8411 48.2298 82.3452 47.8128 82.3452 47.2336C82.3452 46.6793 82.7313 46.2437 83.7745 46.2437H84.6625V46.1939C84.6625 45.7395 84.379 45.4715 83.8063 45.4715C83.4202 45.4715 83.0209 45.596 82.7631 45.8014L82.4482 45.235C82.8146 44.9608 83.3491 44.8242 83.9025 44.8242C84.8945 44.8242 85.4668 45.2786 85.4668 46.2374ZM84.6625 47.1465V46.7606H83.8324C83.2851 46.7606 83.1371 46.9598 83.1371 47.2025C83.1371 47.4829 83.3816 47.6631 83.7934 47.6631C84.1863 47.6631 84.527 47.4888 84.6625 47.1465Z" fill="#82A40E"/>
<path id="Vector_174" d="M89.5793 44.8623V48.187H88.7742V45.5224H87.4866L87.4544 46.1822C87.3965 47.3651 87.2163 48.2493 86.4055 48.2493C86.2765 48.2493 86.1285 48.2247 85.9615 48.1811L85.9998 47.5273C86.0577 47.5397 86.1095 47.5459 86.1542 47.5459C86.6822 47.5459 86.7015 46.836 86.7402 46.1452L86.7981 44.8623H89.5793Z" fill="#82A40E"/>
<path id="Vector_175" d="M93.5041 46.2374V48.1863H92.7452V47.7817C92.5518 48.068 92.1782 48.2298 91.6638 48.2298C90.8784 48.2298 90.3825 47.8128 90.3825 47.2336C90.3825 46.6793 90.7686 46.2437 91.8118 46.2437H92.6997V46.1939C92.6997 45.7395 92.4163 45.4715 91.8436 45.4715C91.4575 45.4715 91.0582 45.596 90.8004 45.8014L90.4855 45.235C90.8519 44.9608 91.3863 44.8242 91.9397 44.8242C92.9314 44.8242 93.5041 45.2786 93.5041 46.2374ZM92.6997 47.1465V46.7606H91.8697C91.3224 46.7606 91.1744 46.9598 91.1744 47.2025C91.1744 47.4829 91.4189 47.6631 91.8307 47.6631C92.2236 47.6631 92.5643 47.4888 92.6997 47.1465Z" fill="#82A40E"/>
</g>
<g id="Group_120">
<path id="Vector_176" d="M63.5187 24.1043L63.5037 17.3646L60.05 22.9424H59.1788L55.7248 17.4518V24.1043H53.8777V13.9365H55.4846L59.6443 20.662L63.7589 13.9365H65.3504L65.3805 24.1043H63.5187Z" fill="#82A40E"/>
<path id="Vector_177" d="M67.5858 13.9365H69.508V21.1558L75.1545 13.9365H76.9715V24.1043H75.0494V16.8995L69.4029 24.1043H67.5858V13.9365Z" fill="#82A40E"/>
<path id="Vector_178" d="M87.9617 17.5534C87.9617 19.7903 86.2497 21.1703 83.4864 21.1703H81.1137V24.1043H79.1615V13.9365H83.4864C86.2497 13.9365 87.9617 15.302 87.9617 17.5534ZM85.9945 17.5534C85.9945 16.2751 85.1083 15.5344 83.3963 15.5344H81.1137V19.5724H83.3963C85.1083 19.5724 85.9945 18.8318 85.9945 17.5534Z" fill="#82A40E"/>
</g>
</g>
</g>
</g>
</g>
</svg>
